<svg width="184" height="27" viewBox="0 0 184 27" fill="none" xmlns="http://www.w3.org/2000/svg">
<path d="M136.566 5.23431L142.491 20.9374H139.474L138.092 17.048H131.913L130.568 20.9374H127.587L133.512 5.23431H136.566ZM134.93 8.14229L132.604 14.7579H137.329L135.003 8.14229H134.93Z" fill="currentColor"/>
<path d="M143.799 9.66907H152.778V10.7232L146.889 18.8292H152.814V20.9375H143.363V19.6652L149.179 11.7774H143.763V9.66907H143.799Z" fill="currentColor"/>
<path d="M164.119 9.66907V20.9375H161.429V19.4471H161.393C161.029 19.956 160.557 20.3559 159.975 20.6467C159.393 20.9375 158.739 21.0829 158.012 21.0829C156.704 21.0829 155.722 20.7194 155.031 19.956C154.341 19.229 154.014 18.0658 154.014 16.5028V9.66907H156.704V16.212C156.704 17.1571 156.885 17.8841 157.285 18.3566C157.649 18.8292 158.23 19.0836 158.994 19.0836C159.757 19.0836 160.339 18.8292 160.811 18.2839C161.247 17.7387 161.502 17.0481 161.502 16.212V9.70542H164.192L164.119 9.66907Z" fill="currentColor"/>
<path d="M172.08 9.48737C172.298 9.48737 172.479 9.48737 172.661 9.52371C172.843 9.52371 172.988 9.59642 173.097 9.63277V12.3226C172.952 12.2136 172.77 12.1409 172.479 12.0318C172.225 11.9228 171.898 11.8864 171.498 11.8864C170.844 11.8864 170.298 12.1772 169.862 12.7225C169.426 13.2677 169.172 14.1038 169.172 15.267V20.9375H166.518V9.66911H169.172V11.4502H169.208C169.462 10.8323 169.826 10.3598 170.298 9.99626C170.771 9.63277 171.389 9.48737 172.08 9.48737Z" fill="currentColor"/>
<path d="M182.621 18.1023V20.2832C182.185 20.574 181.603 20.7921 180.912 20.9739C180.222 21.1556 179.458 21.2283 178.659 21.2283C176.95 21.2283 175.605 20.7194 174.66 19.7016C173.715 18.6838 173.243 17.2662 173.243 15.4487C173.243 13.6312 173.752 12.2499 174.769 11.1231C175.787 9.99627 177.096 9.41467 178.659 9.41467C180.222 9.41467 181.421 9.88722 182.294 10.8323C183.166 11.7774 183.602 13.086 183.602 14.7944V16.0667H175.896C176.005 17.1935 176.369 17.9932 176.987 18.4294C177.605 18.8656 178.368 19.12 179.349 19.12C180.331 19.12 180.585 19.011 181.167 18.8292C181.749 18.6475 182.257 18.393 182.694 18.0659L182.621 18.1023ZM180.912 14.1765C180.912 13.3041 180.694 12.6498 180.295 12.1772C179.895 11.7047 179.313 11.4866 178.586 11.4866C177.859 11.4866 177.387 11.7047 176.878 12.1772C176.369 12.6498 176.042 13.3041 175.86 14.1765H180.912Z" fill="currentColor"/>
<path d="M50.9985 5.23448V20.9376H48.2723V8.615H48.236L43.3651 20.9376H41.5476L36.5677 8.615V20.9376H34.0596V5.23448H37.9853L42.4927 16.8664H42.5654L47.3272 5.23448H51.0712H50.9985ZM53.2886 6.43402C53.2886 5.99782 53.434 5.63433 53.7611 5.34353C54.0882 5.05273 54.4517 4.90733 54.8879 4.90733C55.3241 4.90733 55.7603 5.05273 56.0511 5.37988C56.3419 5.67068 56.5237 6.03417 56.5237 6.47037C56.5237 6.90657 56.3783 7.27006 56.0511 7.56086C55.724 7.85166 55.3605 7.99706 54.8879 7.99706C54.4154 7.99706 54.0519 7.85166 53.7611 7.56086C53.434 7.27006 53.2886 6.90657 53.2886 6.47037V6.43402ZM56.2329 9.66914V20.9376H53.5794V9.66914H56.2329ZM64.2662 19.011C64.666 19.011 65.1022 18.902 65.5748 18.7202C66.0473 18.5385 66.4835 18.284 66.8833 17.9932V20.465C66.4471 20.7195 65.9746 20.9012 65.4294 21.0103C64.8841 21.1193 64.3025 21.192 63.6482 21.192C61.9761 21.192 60.6312 20.6831 59.6134 19.629C58.5593 18.5748 58.0504 17.2299 58.0504 15.6305C58.0504 14.0311 58.5956 12.3227 59.6498 11.1595C60.7039 9.99629 62.1942 9.4147 64.1571 9.4147C66.12 9.4147 65.1386 9.4874 65.6475 9.59644C66.1564 9.74184 66.5562 9.88724 66.847 10.0326V12.5771C66.4471 12.2863 66.011 12.0319 65.6111 11.8865C65.1749 11.7047 64.7387 11.632 64.3025 11.632C63.2484 11.632 62.4123 11.9592 61.758 12.6498C61.1037 13.3405 60.7766 14.2492 60.7766 15.4124C60.7766 16.5756 61.0674 17.448 61.6853 18.0659C62.3033 18.6839 63.1393 19.011 64.1935 19.011H64.2662ZM74.4077 9.48739C74.6258 9.48739 74.8076 9.48739 74.9893 9.52374C75.1711 9.56009 75.3165 9.59644 75.4255 9.63279V12.3227C75.2801 12.2136 75.0984 12.1409 74.8076 12.0319C74.5531 11.9228 74.226 11.8865 73.8261 11.8865C73.1718 11.8865 72.6266 12.1773 72.1904 12.7225C71.7542 13.2678 71.4998 14.1038 71.4998 15.267V20.9376H68.8462V9.66914H71.4998V11.4503H71.5361C71.7905 10.8323 72.154 10.3598 72.6266 9.99629C73.0991 9.63279 73.7171 9.48739 74.4077 9.48739ZM75.5709 15.4851C75.5709 13.6313 76.0798 12.1409 77.134 11.0504C78.1881 9.95994 79.6421 9.4147 81.5323 9.4147C83.4225 9.4147 84.6583 9.92359 85.6398 10.9777C86.6212 12.0319 87.1301 13.4495 87.1301 15.2306C87.1301 17.0118 86.6212 18.5021 85.5671 19.5926C84.5129 20.6831 83.0953 21.2283 81.2778 21.2283C79.4603 21.2283 78.1518 20.7194 77.134 19.7017C76.1162 18.6839 75.6073 17.2662 75.6073 15.4851H75.5709ZM78.3335 15.376C78.3335 16.5392 78.5879 17.448 79.1332 18.0659C79.6784 18.6839 80.4418 19.011 81.4232 19.011C82.4047 19.011 83.1317 18.6839 83.6406 18.0659C84.1495 17.448 84.4039 16.5392 84.4039 15.3033C84.4039 14.0675 84.1494 13.1951 83.6042 12.5771C83.0953 11.9592 82.3683 11.6684 81.4232 11.6684C80.4781 11.6684 79.7148 11.9955 79.1695 12.6498C78.6243 13.3041 78.3699 14.2129 78.3699 15.4124L78.3335 15.376ZM91.0559 12.6498C91.0559 13.0133 91.1649 13.3405 91.4194 13.5586C91.6738 13.7767 92.1827 14.0311 93.0188 14.3583C94.0729 14.7945 94.8363 15.267 95.2361 15.7759C95.6723 16.3211 95.8904 16.9391 95.8904 17.7024C95.8904 18.4658 95.4906 19.629 94.6545 20.2469C93.8548 20.9012 92.728 21.2283 91.3467 21.2283C89.9654 21.2283 90.3652 21.1556 89.7836 21.0466C89.2021 20.9375 88.7295 20.7921 88.3297 20.6104V17.9932C88.8022 18.3204 89.3475 18.6112 89.8927 18.7929C90.4379 18.9747 90.9468 19.0837 91.4194 19.0837C91.8919 19.0837 92.4735 19.011 92.728 18.8293C92.9824 18.6475 93.1642 18.3931 93.1642 17.9932C93.1642 17.5934 93.0188 17.3026 92.728 17.0845C92.4372 16.8664 91.8556 16.5392 91.0559 16.2121C90.0744 15.8122 89.3838 15.3397 88.984 14.8308C88.5841 14.3219 88.366 13.6676 88.366 12.8679C88.366 12.0682 88.7659 11.0141 89.5656 10.3598C90.3652 9.70549 91.4194 9.37835 92.6916 9.37835C93.9639 9.37835 93.5277 9.41469 94.0002 9.52374C94.4728 9.59644 94.909 9.74184 95.2361 9.85089V12.359C94.8726 12.1409 94.4728 11.9228 94.0002 11.7411C93.5277 11.5593 93.0551 11.4866 92.6189 11.4866C92.1827 11.4866 91.7102 11.5957 91.4557 11.7774C91.1649 11.9592 91.0195 12.25 91.0195 12.5771L91.0559 12.6498ZM97.0172 15.4851C97.0172 13.6313 97.5261 12.1409 98.5803 11.0504C99.6344 9.95994 101.088 9.4147 102.979 9.4147C104.869 9.4147 106.105 9.92359 107.086 10.9777C108.068 12.0319 108.576 13.4495 108.576 15.2306C108.576 17.0118 108.068 18.5021 107.013 19.5926C105.959 20.6831 104.542 21.2283 102.724 21.2283C100.907 21.2283 99.5981 20.7194 98.5803 19.7017C97.5625 18.6839 97.0536 17.2662 97.0536 15.4851H97.0172ZM99.7798 15.376C99.7798 16.5392 100.034 17.448 100.58 18.0659C101.125 18.6839 101.888 19.011 102.87 19.011C103.851 19.011 104.578 18.6839 105.087 18.0659C105.596 17.448 105.85 16.5392 105.85 15.3033C105.85 14.0675 105.596 13.1951 105.051 12.5771C104.542 11.9592 103.815 11.6684 102.87 11.6684C101.924 11.6684 101.161 11.9955 100.616 12.6498C100.071 13.3041 99.8162 14.2129 99.8162 15.4124L99.7798 15.376ZM117.373 11.8501H113.411V20.9376H110.721V11.8501H108.831V9.66914H110.721V8.10611C110.721 6.90657 111.121 5.96148 111.884 5.19813C112.648 4.43479 113.629 4.07129 114.829 4.07129C116.028 4.07129 115.447 4.07129 115.701 4.10764C115.955 4.10764 116.174 4.18034 116.355 4.25304V6.54307C116.283 6.50672 116.101 6.43402 115.883 6.36132C115.665 6.28862 115.41 6.25227 115.119 6.25227C114.574 6.25227 114.138 6.43402 113.847 6.76117C113.556 7.08831 113.411 7.63356 113.411 8.28786V9.63279H117.373V7.08832L120.027 6.28862V9.63279H122.716V11.8138H120.027V17.0845C120.027 17.7751 120.136 18.284 120.39 18.5385C120.645 18.8293 121.044 18.9747 121.59 18.9747C122.135 18.9747 121.917 18.9383 122.135 18.8656C122.353 18.7929 122.535 18.7202 122.716 18.6112V20.7921C122.535 20.9012 122.28 20.9739 121.88 21.0466C121.481 21.1193 121.117 21.1556 120.717 21.1556C119.59 21.1556 118.754 20.8648 118.209 20.2469C117.664 19.6653 117.373 18.7566 117.373 17.557V11.7774V11.8501Z" fill="currentColor"/>
<path d="M12.4316 0H0V12.4316H12.4316V0Z" fill="#F25022"/>
<path d="M26.1718 0.00012207H13.7402V12.4317H26.1718V0.00012207Z" fill="#7FBA00"/>
<path d="M12.4316 13.7403H0V26.1719H12.4316V13.7403Z" fill="#00A4EF"/>
<path d="M26.1718 13.7403H13.7402V26.1719H26.1718V13.7403Z" fill="#FFB900"/>
<path d="M12.4316 0H0V12.4316H12.4316V0Z" fill="#F25022"/>
<path d="M26.1718 0.00012207H13.7402V12.4317H26.1718V0.00012207Z" fill="#7FBA00"/>
<path d="M12.4316 13.7403H0V26.1719H12.4316V13.7403Z" fill="#00A4EF"/>
<path d="M26.1718 13.7403H13.7402V26.1719H26.1718V13.7403Z" fill="#FFB900"/>
</svg>
